<?xml version="1.0" encoding="UTF-8"?>
<svg width="149pt" height="149pt" version="1.1" viewBox="0 0 149 149" xmlns="http://www.w3.org/2000/svg">
<g fill="#00467f">
<path d="m0 74.406c0.074219-41.121 33.523-74.477 74.613-74.367 41.184 0.11328 74.477 33.477 74.387 74.52-0.019531 19.781-7.9062 38.746-21.93 52.703-14.02 13.961-33.016 21.766-52.801 21.699-41.02-0.082032-74.336-33.516-74.27-74.555zm31.441-26.789h83.465c0.21875-1.2188 0.42188-2.3438 0.64844-3.6016h-82.055c9.7695-17.27 31.41-31.898 57.984-29.043 12.242 1.2344 23.785 6.3047 32.977 14.488 11.18 9.8203 17.758 22.195 19.984 36.906-2.5312-29.082-27.805-60.512-66.832-62.27-41.84-1.8672-75.648 32.621-73.555 74.043 1.0039 19.438 10.004 37.598 24.863 50.168 14.859 12.574 34.258 18.441 53.598 16.211 16.215-1.8008 30.18-8.5977 41.738-20.09 11.562-11.492 18.238-25.465 20.254-41.637-5.4453 35.715-38.312 55.543-67.664 50.953 3.8828-20.836 7.7656-41.688 11.656-62.555h22.102c0.23047-1.2109 0.44531-2.3711 0.6875-3.6406h-85.824l0.33984-2.2305h85.844c0.23047-1.2109 0.45312-2.3555 0.6875-3.6094h-85.883l0.58203-2.3242h85.703c0.22266-1.1875 0.4375-2.3086 0.67578-3.5664h-85.359l0.82031-2.3164h84.953l0.64844-3.5703h-84.113zm57.391 54.781h-2.6914c-0.83984 3.9453-1.6719 7.8555-2.5117 11.812h2.7422l1.1328-5.6055h0.11328c0.36719 1.8789 0.73047 3.7578 1.0898 5.5938h2.7227c0.82812-3.9531 1.6445-7.8398 2.4805-11.809h-2.7383l-1.1211 5.6836h-0.12109c-0.36328-1.8906-0.73047-3.7773-1.0977-5.6758zm11.934 11.836c0.47266-2.2188 0.92969-4.3906 1.3984-6.6055-0.20703-0.035156-0.41406-0.058594-0.625-0.074218h-3.5156l-0.44141 2.2188 1.3828 0.070312c-0.078125 0.72656-0.38281 1.4062-0.86719 1.9492-0.32812 0.36328-0.84766 0.48438-1.3008 0.30078-0.50391-0.18359-0.45312-0.65234-0.43359-1.0742 0.003907-0.15625 0.023438-0.3125 0.050781-0.46484 0.29297-1.3867 0.5625-2.7773 0.89063-4.1562 0.12109-0.48047 0.30469-0.94141 0.54687-1.375 0.23438-0.42578 0.70703-0.67188 1.1914-0.61719 0.61328 0 0.86328 0.26953 0.83203 0.87891 0 0.36328-0.074219 0.71875-0.12109 1.1445h2.6172c0.89062-2.6953-0.16016-4.25-2.4688-4.3359h-0.15625c-2.5664-0.058594-3.8867 0.78125-4.6602 2.7188-0.83984 2.2109-1.3477 4.5312-1.5078 6.8906-0.11719 1.3516 0.53516 2.3047 1.6758 2.6172s2.1758 0.38672 3.1445-0.26172c0.76953 0.34766 1.5391 0.16016 2.3672 0.17578zm4.3906 0c0.38672-1.7461 0.75-3.4258 1.1133-5.0625h2.2891c-0.35938 1.707-0.70703 3.3398-1.0586 5.0234h2.7266c0.84375-3.9414 1.6719-7.8359 2.5117-11.793h-2.7188l-0.95703 4.3281h-2.2969c0.3125-1.4609 0.61328-2.8555 0.92969-4.332h-2.7422c-0.83203 3.9219-1.6719 7.8477-2.5117 11.832zm-4.3555-21.766c1.8867-0.46484 2.7227-1.8477 3.1523-3.5781 0.14844-0.47266 0.26953-0.95703 0.36719-1.4453 0.20703-1.3711 0.42188-2.7422 0.50391-4.125 0.097656-0.86719-0.38281-1.7031-1.1836-2.0586-2.0078-1.0039-4.793-0.078125-5.6875 2.0117-0.85547 2.0938-1.3633 4.3125-1.5078 6.5664-0.11719 1.3477 0.43359 2.2422 1.6719 2.5859 0.066406 0 0.10937 0.10156 0.16016 0.15234l-0.41016 2.0547h2.3906c0.19922-0.73437 0.36719-1.4414 0.54297-2.1719zm-4.0195-11.207h-2.5859l-0.88281 4.0195h-2.1016l0.85156-4.0195h-2.5898c-0.78125 3.6836-1.5547 7.3047-2.3438 11.004h2.5781c0.35156-1.5977 0.70312-3.1641 1.043-4.6992h2.0977c-0.33594 1.5898-0.66016 3.1133-1.0039 4.707h2.5859c0.77344-3.6797 1.5742-7.3086 2.3359-11.016zm17.535 21.121c-0.84375 3.9531-1.6719 7.8594-2.5117 11.82h6.5273c0.16016-0.73047 0.3125-1.4141 0.50391-2.2422h-3.8242l0.58984-2.875h3.5156c0.16016-0.76563 0.30078-1.4492 0.46094-2.2422h-3.4844c0.16406-0.78906 0.30078-1.4727 0.45703-2.2383h3.8203c0.17578-0.77344 0.32812-1.4648 0.50391-2.2227zm-0.90625-17.367c0.0625-0.6875 0.082032-1.375 0.054688-2.0586-0.011719-1.0312-0.80859-1.8789-1.8359-1.9492-1.7422-0.30078-3.8711 0.14453-4.7227 2.4609-0.46484 1.3867-0.83594 2.8086-1.1094 4.2461-0.17969 0.84766-0.28125 1.7031-0.30078 2.5664-0.039063 0.75781 0.34766 1.4688 1.0039 1.8438 1.4531 0.875 3.9297 0.42969 4.9492-0.90234 0.67188-0.95703 1.1094-2.0625 1.2734-3.2188h-2.5117c-0.21484 0.61328-0.375 1.1953-0.62109 1.7422-0.3125 0.6875-0.71484 0.74609-1.4258 0.21875-0.011718-0.42188 0.011719-0.84375 0.0625-1.2656 0.22266-1.2109 0.47266-2.4141 0.75391-3.6133 0.10156-0.46094 0.27344-0.90625 0.50391-1.3164 0.23828-0.52734 0.85547-0.76562 1.3867-0.53125v1.7773zm1.0391 17.008h2.5117l1.0039-0.9375 0.62109 0.92578h2.3633l-1.6367-2.7383h-2.0078zm-0.86719 12.488c-0.15625 0.75781-0.30469 1.4805-0.47266 2.2812h2.5625l0.46484-2.2812z"/>
<path d="m38.789 112.63c-9.75-12.195-14.258-25.91-13.602-41.371h21.305c-2.5625 13.75-5.1172 27.469-7.7031 41.371z"/>
<path d="m67.375 114.13h-2.5625l-1.1484-5.8516h-0.16016c-0.39062 1.9492-0.77734 3.8984-1.1641 5.8477h-2.5742c0.82812-3.9023 1.6484-7.7383 2.4805-11.633h2.543c0.39063 2.0078 0.78516 4.0195 1.1758 6.0273h0.14062c0.38672-2.0078 0.77734-4.0195 1.1641-6.0273h2.5781c-0.82812 3.9062-1.6367 7.7461-2.4727 11.637z"/>
<path d="m78.496 106.36h-2.582c0.03125-0.38281 0.074219-0.71094 0.085938-1.0508 0-0.71094-0.26562-1.0039-1.0039-1.0039-0.54688-0.035157-1.0547 0.27734-1.2734 0.78125-0.25391 0.59766-0.46094 1.2148-0.61719 1.8477-0.26562 1.0938-0.5 2.2031-0.70703 3.3086-0.058594 0.28125-0.089844 0.57031-0.089844 0.85937 0 0.41797-0.027344 0.85938 0.44922 1.0781 0.48047 0.19141 1.0234 0.070312 1.3789-0.30078 0.55078-0.57031 0.87891-1.3203 0.91406-2.1133h-1.3672l0.41797-2.0898h3.9727c-0.45703 2.1641-0.90625 4.2734-1.3633 6.4297h-1.8867l-0.23438-0.29297c-0.078125 0.03125-0.15625 0.066406-0.22656 0.10547-1.2422 0.83984-2.5117 0.60156-3.7266 0-0.55859-0.29688-0.90625-0.875-0.91406-1.5078-0.078125-0.62109-0.066406-1.2539 0.027344-1.875 0.30078-1.5742 0.6875-3.125 1.0469-4.6836 0.035156-0.14844 0.089844-0.30078 0.13281-0.44531 0.83984-2.6367 2.7148-3.7344 5.9102-3.0938 0.98828 0.125 1.7305 0.97266 1.7148 1.9727 0.023437 0.69141 0.003906 1.3867-0.058594 2.0742z"/>
<path d="m59.457 105.08c-0.15625 2.1875-0.59766 4.3438-1.3125 6.4141-0.42188 1.1914-1.3164 2.1562-2.4766 2.6641-1.1562 0.50781-2.4727 0.51172-3.6367 0.011719-0.74609-0.24219-1.2773-0.90234-1.3555-1.6797-0.09375-0.625-0.09375-1.2578 0-1.8789 0.36328-1.7695 0.73047-3.5469 1.2344-5.2773 0.92969-3.1758 3.7148-3.5195 5.9648-2.9258 0.71094 0.16797 1.2578 0.74219 1.3906 1.4609 0.10938 0.42969 0.14453 0.87891 0.19141 1.2109zm-2.5938 0.45703 0.11719-0.085937c-0.16406-0.37891-0.38281-0.73438-0.64844-1.0469-0.33203-0.28125-1.0703-0.066406-1.4102 0.35547-0.23828 0.27344-0.41016 0.59375-0.50391 0.94531-0.41016 1.7812-0.78516 3.5703-1.1406 5.3633-0.13281 0.41797 0.042968 0.875 0.42188 1.0938 0.40234 0.23828 0.91406 0.1875 1.2578-0.12891 0.38672-0.37891 0.67969-0.84375 0.85156-1.3555 0.35547-1.2578 0.60156-2.543 0.875-3.8242 0.066406-0.42969 0.11328-0.87891 0.17969-1.3164z"/>
<path d="m62.402 92.242c0.33594-1.6133 0.64062-3.0703 0.94531-4.5703l-0.79688-0.17188 0.35938-1.5898 0.87109-0.16406c0.30859-1.4453 0.62109-2.8945 0.94922-4.3945 0.16406-0.03125 0.33203-0.054687 0.5-0.0625h3.7812c0.54688-0.023437 1.0781 0.17969 1.4727 0.55859 0.39062 0.37891 0.61328 0.90234 0.61328 1.4492 0.035156 0.62891-0.007812 1.2578-0.125 1.875-0.26562 1.4414-0.61328 2.8633-1.0508 4.2617-0.60938 1.7734-1.8086 2.9219-3.957 2.8086-1.1289-0.066407-2.2812 0-3.5625 0zm3.8086-6.5312 1.1836 0.21094c-0.16016 0.58984-0.30469 1.1055-0.44141 1.5938l-1.168 0.12109c-0.18359 0.86328-0.34766 1.6719-0.50391 2.4766 1.2305 0.28516 2.043-0.042969 2.3398-1.0859 0.41406-1.457 0.69922-2.9492 1.0039-4.4336 0.015625-0.41406-0.027344-0.82812-0.125-1.2305l-1.7266-0.10547c-0.21484 0.84766-0.40234 1.625-0.5625 2.4531z"/>
<path d="m47.051 109.7h2.4258c0.070313 3.2305-2.7031 5.4102-5.75 4.5664-1.0078-0.1875-1.7227-1.082-1.6875-2.1055 0.03125-2.7617 0.65625-5.4883 1.8281-7.9922 0.85937-1.7109 3.2578-2.4727 5.0664-1.8164 0.74219 0.24219 1.2852 0.87891 1.4062 1.6523 0.16406 0.76953 0.11328 1.5664-0.14062 2.3125h-2.4414v-1.8438c-0.82422-0.21875-1.25-0.10547-1.6172 0.5-0.24219 0.41406-0.42188 0.86328-0.53125 1.332-0.33203 1.4297-0.61328 2.8711-0.90625 4.3125-0.046875 0.26172-0.0625 0.52344-0.050781 0.78516-0.03125 0.39844 0.23438 0.75781 0.625 0.84375 0.42578 0.12891 0.87891-0.089844 1.043-0.50391 0.19141-0.43359 0.35938-0.875 0.50391-1.3242 0.074219-0.21484 0.14062-0.44141 0.22656-0.71875z"/>
<path d="m78.355 92.172h-2.5508v-2.5625h-1.8984c-0.34766 0.83594-0.69922 1.6797-1.0703 2.5625h-2.5664l4.8867-10.863h3.0117c0.046875 3.5938 0.11719 7.1953 0.1875 10.863zm-3.6172-4.6445h1.1172v-2.3906l-0.12109-0.050781c-0.32422 0.78125-0.64453 1.5703-0.99609 2.4414z"/>
<path d="m82.031 92.172h-2.4141c0.76562-3.6484 1.5039-7.2266 2.2852-10.859h2.4141z"/>
<path d="m59.711 101.95h-2.1797l-0.70312-1.043c-0.74609 1.2852-1.9219 1.1211-3.2852 1.0039l2.5117-2.5664h2.125c0.46875 0.79297 0.96484 1.6328 1.5312 2.6055z"/>
<path d="m75.156 92.555c-0.14453 0.6875-0.27734 1.3398-0.41797 2.0078h-2.2266l0.41797-2.0078z"/>
<path d="m99.129 90.086c-0.015625-0.042969-0.023437-0.085938-0.03125-0.12891-0.078125-0.48828-0.035156-0.98828 0.12891-1.457 0.14844-0.50391 0.30859-1.5664 0.79297-3.6914 0.074219-0.30469 0.18359-0.60156 0.32812-0.87891 0.38281-0.72266 0.75781-0.875 1.6211-0.69922 0.31641 0.33203 0.42578 0.8125 0.28125 1.2461-0.28516 1.4375-0.58594 2.8711-0.90234 4.3047-0.066406 0.28125-0.17188 0.55078-0.3125 0.80469-0.39062 0.70703-0.89844 0.86719-1.9062 0.5z"/>
</g>
</svg>
